<?xml version="1.0" encoding="UTF-8"?>
<svg id="a" data-name="レイヤー 1" xmlns="http://www.w3.org/2000/svg" width="500" height="500" viewBox="0 0 500 500">
  <rect width="500" height="500" rx="132" ry="132" style="fill: #1a1a1a;"/>
  <path d="M305.857,231.518c44.632,0,68.727,16.702,68.727,50.107,0,37.512-22.726,59.964-78.584,59.964H125.416l36.417-47.095h138.549c13.417,0,19.441-3.833,19.441-13.416,0-9.31-6.024-13.143-19.441-13.143h-99.667c-47.095,0-68.726-21.083-68.726-52.572,0-34.5,23-56.953,78.584-56.953h159.085l-36.418,47.643h-127.048c-13.143,0-19.441,3.286-19.441,12.595s6.297,12.869,19.441,12.869h99.667Z" style="fill: #fff;"/>
</svg>